<?xml version="1.0" encoding="UTF-8" standalone="no"?>
<!-- Created with Inkscape (http://www.inkscape.org/) -->

<svg
   width="63.429359mm"
   height="7.4506712mm"
   viewBox="0 0 63.429359 7.4506712"
   version="1.1"
   id="svg118"
   xmlns="http://www.w3.org/2000/svg"
   xmlns:svg="http://www.w3.org/2000/svg">
  <defs
     id="defs115" />
  <g
     id="layer1">
    <g
       aria-label="PlayMoleculeDAO"
       id="text176"
       style="font-weight:800;font-size:7.05556px;font-family:'Futura Now Headline';-inkscape-font-specification:'Futura Now Headline Ultra-Bold';fill:#008000;stroke-width:0.264583">
      <path
         d="m 1.6368899,0.43744477 q 0.465667,0 0.8537228,0.0987778 0.3880558,0.0987778 0.6632227,0.30338909 0.2822224,0.20461124 0.4374447,0.52916704 0.1622779,0.3245558 0.1622779,0.7831672 0,0.4233336 -0.1481668,0.7478893 Q 3.4572245,3.224391 3.1961687,3.4501689 2.935113,3.6688913 2.5682239,3.7817803 2.2083903,3.8946692 1.7780011,3.8946692 H 1.3052786 V 5.7573371 H 0 V 0.43744477 Z M 1.3052786,2.8363352 H 1.587501 q 0.4092225,0 0.642056,-0.1552223 0.2328335,-0.1622779 0.2328335,-0.5221115 0,-0.352778 -0.2398891,-0.4938892 Q 1.9826124,1.5169455 1.5663343,1.5169455 H 1.3052786 Z"
         style="fill:#000000"
         id="path488" />
      <path
         d="M 4.3603245,5.7573371 V 4.196167e-8 H 5.6303253 V 5.7573371 Z"
         style="fill:#000000"
         id="path490" />
      <path
         d="m 6.2864868,3.9934471 q 0,-0.3739447 0.1199446,-0.7126116 Q 6.5263759,2.9421686 6.7380427,2.6881684 6.9567651,2.4341683 7.2601541,2.2860015 7.5705988,2.1307792 7.951599,2.1307792 q 0.3316114,0 0.5997226,0.112889 0.2751669,0.1128889 0.5080004,0.3810002 h 0.00706 L 9.059322,2.2154459 h 1.248834 V 5.7573371 H 9.059322 L 9.066382,5.3269479 H 9.059322 Q 8.8053218,5.5809481 8.5442661,5.7150037 8.2832104,5.8490594 7.9445435,5.8490594 q -0.3810003,0 -0.6914449,-0.1481668 Q 6.9497095,5.5527259 6.7309871,5.2987257 6.5193203,5.0447255 6.3993758,4.7131142 6.2864868,4.3744473 6.2864868,3.9934471 Z m 1.2700009,-0.00706 q 0,0.3598336 0.1975556,0.5926671 0.2046113,0.2328334 0.5644449,0.2328334 0.3598335,0 0.5715003,-0.2257779 0.2187224,-0.2328335 0.2187224,-0.592667 0,-0.3598336 -0.2187224,-0.5926671 -0.2116668,-0.2328335 -0.5644448,-0.2328335 -0.352778,0 -0.5644448,0.2328335 -0.2046112,0.2328335 -0.2046112,0.5856115 z"
         style="fill:#000000"
         id="path492" />
      <path
         d="m 12.0932,2.2154459 0.790223,2.0178902 0.769056,-2.0178902 h 1.361723 L 12.474201,7.4506715 H 11.098367 L 12.248423,5.2211145 10.6962,2.2154459 Z"
         style="fill:#000000"
         id="path494" />
      <path
         d="m 16.100754,0.43744477 h 1.072445 l 1.227667,3.25966873 1.25589,-3.25966873 h 1.06539 l 0.903111,5.31989233 h -1.340556 l -0.409223,-3.048002 -1.192389,3.048002 h -0.656167 l -1.12889,-3.048002 -0.458611,3.048002 h -1.298223 z"
         style="fill:#000000"
         id="path496" />
      <path
         d="m 22.055627,3.9722804 q 0,-0.4162781 0.155222,-0.7549449 0.155223,-0.3457225 0.423334,-0.5856115 0.268111,-0.2469446 0.642056,-0.3739447 0.373945,-0.1340557 0.804334,-0.1340557 0.437445,0 0.804334,0.1340557 0.373944,0.1270001 0.642056,0.3739447 0.275167,0.239889 0.430389,0.5856115 0.155222,0.3457224 0.155222,0.769056 0,0.4303892 -0.155222,0.7761116 -0.155222,0.3457225 -0.430389,0.5926671 -0.268112,0.239889 -0.642056,0.3668891 -0.373945,0.1270001 -0.81139,0.1270001 -0.430389,0 -0.804334,-0.1270001 -0.366889,-0.1270001 -0.635,-0.3668891 Q 22.366072,5.1082256 22.210849,4.7625031 22.055627,4.4097251 22.055627,3.9722804 Z m 1.262945,0.00706 q 0,0.3739447 0.204612,0.5997227 0.204611,0.2257779 0.557389,0.2257779 0.352778,0 0.557389,-0.2257779 0.211667,-0.225778 0.211667,-0.5926671 0,-0.3598336 -0.211667,-0.5856115 -0.204611,-0.2257779 -0.557389,-0.2257779 -0.345723,0 -0.557389,0.2257779 -0.204612,0.2257779 -0.204612,0.5785559 z"
         style="fill:#000000"
         id="path498" />
      <path
         d="M 26.768733,5.7573371 V 4.196167e-8 h 1.270001 V 5.7573371 Z"
         style="fill:#000000"
         id="path500" />
      <path
         d="m 28.694896,4.0075582 q 0,-0.4374447 0.141111,-0.7831672 0.148167,-0.352778 0.402167,-0.592667 0.254,-0.2469446 0.599723,-0.3739447 0.352778,-0.1340557 0.754945,-0.1340557 0.423333,0 0.769056,0.1340557 0.352778,0.1270001 0.606778,0.3739447 0.254,0.2469446 0.388056,0.6067781 0.141111,0.352778 0.141111,0.8113894 0,0.049389 0,0.091722 0,0.042333 -0.0071,0.084667 h -2.518835 q 0.01411,0.3527781 0.176389,0.5715004 0.162278,0.2116668 0.49389,0.2116668 0.218722,0 0.366889,-0.1058334 0.155222,-0.1128889 0.268111,-0.3316113 l 1.164167,0.2046112 q -0.112889,0.2751669 -0.296333,0.4797781 -0.183445,0.1975557 -0.423334,0.3316114 -0.239889,0.127 -0.515056,0.1905001 -0.275166,0.070556 -0.5715,0.070556 -0.423334,0 -0.776112,-0.1199445 Q 29.506285,5.6021148 29.24523,5.3692813 28.984174,5.1293922 28.836007,4.7907254 28.694896,4.4450029 28.694896,4.0075582 Z m 1.305279,-0.4797781 h 1.227667 q -0.02822,-0.2610557 -0.1905,-0.4092225 -0.162278,-0.1552223 -0.423334,-0.1552223 -0.261055,0 -0.416278,0.1622779 -0.155222,0.1552223 -0.197555,0.4021669 z"
         style="fill:#000000"
         id="path502" />
      <path
         d="m 32.963508,4.0005026 q 0,-0.3951113 0.134056,-0.7337782 0.141111,-0.3457225 0.388055,-0.5997226 0.254,-0.2540002 0.599723,-0.3951114 0.345722,-0.1481668 0.762,-0.1481668 0.310445,0 0.578556,0.0635 0.268112,0.0635 0.451556,0.1552223 V 3.52778 q -0.183444,-0.176389 -0.381,-0.2751668 -0.197556,-0.098778 -0.4445,-0.098778 -0.366889,0 -0.585612,0.2328335 -0.218722,0.2328335 -0.218722,0.5997226 0,0.3457225 0.204611,0.5856115 0.211667,0.239889 0.592667,0.239889 0.239889,0 0.430389,-0.091722 0.197556,-0.091722 0.402167,-0.2610558 l -0.03528,1.171223 q -0.176389,0.098778 -0.423333,0.1552223 -0.246945,0.0635 -0.508001,0.0635 -0.430389,0 -0.790222,-0.1270001 Q 33.760786,5.5880037 33.49973,5.3481146 33.24573,5.1082256 33.104619,4.7695587 32.963508,4.4238362 32.963508,4.0005026 Z"
         style="fill:#000000"
         id="path504" />
      <path
         d="m 36.561832,2.2154459 h 1.262945 v 1.9261679 q 0,0.3104447 0.105833,0.4868337 0.112889,0.1693334 0.388056,0.1693334 0.282223,0 0.388056,-0.1693334 0.112889,-0.176389 0.112889,-0.4868337 V 2.2154459 h 1.262945 v 2.0249458 q 0,0.7972783 -0.479778,1.2065007 -0.472722,0.402167 -1.284112,0.402167 -0.388056,0 -0.712611,-0.091722 -0.324556,-0.098778 -0.55739,-0.2963335 -0.232833,-0.1975557 -0.359833,-0.5009448 -0.127,-0.3033891 -0.127,-0.7196671 z"
         style="fill:#000000"
         id="path506" />
      <path
         d="M 40.88688,5.7573371 V 4.196167e-8 h 1.270001 V 5.7573371 Z"
         style="fill:#000000"
         id="path508" />
      <path
         d="m 42.813041,4.0075582 q 0,-0.4374447 0.141111,-0.7831672 0.148167,-0.352778 0.402167,-0.592667 0.254,-0.2469446 0.599723,-0.3739447 0.352778,-0.1340557 0.754945,-0.1340557 0.423333,0 0.769056,0.1340557 0.352778,0.1270001 0.606778,0.3739447 0.254,0.2469446 0.388056,0.6067781 0.141111,0.352778 0.141111,0.8113894 0,0.049389 0,0.091722 0,0.042333 -0.0071,0.084667 h -2.518835 q 0.01411,0.3527781 0.176389,0.5715004 0.162278,0.2116668 0.49389,0.2116668 0.218722,0 0.366889,-0.1058334 0.155222,-0.1128889 0.268111,-0.3316113 l 1.164167,0.2046112 q -0.112889,0.2751669 -0.296333,0.4797781 -0.183445,0.1975557 -0.423334,0.3316114 -0.239889,0.127 -0.515056,0.1905001 -0.275166,0.070556 -0.5715,0.070556 -0.423334,0 -0.776112,-0.1199445 Q 43.62443,5.6021148 43.363375,5.3692813 43.102319,5.1293922 42.954152,4.7907254 42.813041,4.4450029 42.813041,4.0075582 Z M 44.11832,3.5277801 h 1.227667 q -0.02822,-0.2610557 -0.1905,-0.4092225 -0.162278,-0.1552223 -0.423334,-0.1552223 -0.261055,0 -0.416278,0.1622779 -0.155222,0.1552223 -0.197555,0.4021669 z"
         style="fill:#000000"
         id="path510" />
      <path
         d="M 47.342709,5.7573371 V 0.43744477 h 1.524001 q 0.677333,0 1.241778,0.16933344 0.564445,0.16933344 0.966612,0.50800029 0.402167,0.3386669 0.627945,0.8466673 0.225778,0.5009447 0.225778,1.1712229 0,0.6208893 -0.204612,1.107723 -0.204611,0.4868336 -0.585611,0.8255005 -0.373945,0.3386669 -0.896056,0.5150559 -0.522112,0.176389 -1.157112,0.176389 z m 1.580445,-1.1500563 q 0.373945,0 0.684389,-0.091722 0.310445,-0.098778 0.529167,-0.2822224 0.218723,-0.1834446 0.338667,-0.4586114 0.119945,-0.2751668 0.119945,-0.642056 0,-0.7267227 -0.423334,-1.1147785 Q 49.75571,1.6227789 48.923154,1.6227789 h -0.275167 v 2.9845019 z"
         style="fill:#000080"
         id="path512" />
      <path
         d="m 51.94997,5.7573371 2.180168,-5.31989233 h 1.178278 L 57.453307,5.7573371 H 55.999861 L 55.654139,4.748392 H 53.706804 L 53.339915,5.7573371 Z M 55.308416,3.753558 55.047361,2.9915575 54.708694,1.9473346 Q 54.624024,2.2083904 54.53936,2.4694461 54.45469,2.7234462 54.355916,2.984502 l -0.282223,0.769056 z"
         style="fill:#000080"
         id="path514" />
      <path
         d="m 57.714356,3.0903354 q 0,-0.5926671 0.225778,-1.0936118 0.225778,-0.5009448 0.613834,-0.8678339 0.395111,-0.36688917 0.917222,-0.57150041 0.522112,-0.2116668 1.107723,-0.2116668 0.585612,0 1.100668,0.2116668 0.522111,0.20461124 0.910167,0.57150041 0.388056,0.3668891 0.613834,0.8748894 0.225778,0.5009448 0.225778,1.1006674 0,0.6067782 -0.225778,1.1147785 -0.225778,0.5009448 -0.62089,0.8678339 -0.388055,0.3598335 -0.910167,0.5644448 -0.522111,0.1975557 -1.114778,0.1975557 -0.571501,0 -1.093612,-0.1975557 Q 58.949079,5.453948 58.561023,5.0941144 58.172967,4.7272253 57.940134,4.219225 57.714356,3.7112247 57.714356,3.0903354 Z m 1.347612,0.00706 q 0,0.3386669 0.119944,0.6279449 0.119945,0.2822224 0.324556,0.4868336 0.211667,0.2046113 0.479778,0.3175002 0.275167,0.112889 0.578556,0.112889 0.324556,0 0.599723,-0.112889 0.282222,-0.1199445 0.486833,-0.3245557 0.204612,-0.2046113 0.317501,-0.4868337 0.119944,-0.2822224 0.119944,-0.6138337 0,-0.3316113 -0.119944,-0.6138337 Q 61.85597,2.2083904 61.651358,2.0037791 61.453803,1.7921123 61.17158,1.6721678 60.896413,1.5522233 60.571858,1.5522233 q -0.3175,0 -0.599723,0.1199445 -0.275167,0.1199445 -0.479778,0.3316113 -0.197556,0.2046113 -0.3175,0.4868337 -0.112889,0.2822224 -0.112889,0.6067781 z"
         style="fill:#000080"
         id="path516" />
    </g>
  </g>
</svg>
